<svg xmlns="http://www.w3.org/2000/svg" width="256" height="256"><path fill-opacity=".016" d="M0 128.004v128.004l128.25-.254 128.25-.254.254-127.75L257.008 0H0v128.004m.485.496c0 70.4.119 99.053.265 63.672.146-35.38.146-92.98 0-128C.604 29.153.485 58.1.485 128.5" fill="#1976D2" fill-rule="evenodd"/><path fill-opacity=".39" d="M65.5.605c-1.1.228-4.475.908-7.5 1.512-21.321 4.251-42.208 21.467-51.478 42.43C.347 58.509.5 56.387.5 128c0 73.519-.236 70.807 7.515 86.5 9.203 18.634 25.363 32.219 45.985 38.658l7.5 2.342h133l7.465-2.344c25.846-8.116 45.317-28.062 51.418-52.675.952-3.84 2.155-8.363 2.674-10.052 1.194-3.889 1.265-122.812.075-125.193-.478-.955-1.614-4.886-2.524-8.736-4.889-20.669-19.78-39.147-39.108-48.528C198.655.281 201.99.585 131 .376 96.075.274 66.6.377 65.5.605m1.558 65.574c-6.333 3.309-10.234 8.598-10.817 14.665-1.244 12.951 7.323 21.799 20.307 20.972 4.865-.31 6.999-.996 9.841-3.164 10.518-8.022 10.035-24.026-.951-31.554-4.987-3.417-12.848-3.81-18.38-.919m105.388.304c-6.779 3.403-9.771 8.058-10.21 15.886-.412 7.343 1.428 11.522 7.051 16.015 5.157 4.121 14.316 4.88 20.544 1.702 13.821-7.051 13.043-27.696-1.29-34.206-5.529-2.512-10.241-2.335-16.095.603M.47 128.5c0 34.1.126 48.195.279 31.322.154-16.873.154-44.773.001-62C.596 80.595.47 94.4.47 128.5m120.167-22.035c-14.251 5.08-18.133 24.305-7.013 34.732 10.553 9.895 27.354 6.535 33.48-6.697 7.71-16.652-8.936-34.285-26.467-28.035m-71.302 2.708c-.81 1.034-8.143 19.272-12.899 32.077-.611 1.645 1.41 1.75 33.804 1.75h34.454l-2.553-5.159c-3.037-6.137-3.44-16.094-.89-22.014 2.779-6.45 2.512-6.526-25.814-7.298-20.267-.553-25.262-.43-26.102.644m104.834 1.49c-.623 1.113-.43 2.849.583 5.25 2.506 5.937 2.102 15.877-.892 21.927l-2.554 5.16h34.454c27.158 0 34.35-.265 33.963-1.25l-6.677-17-6.187-15.75h-25.88c-23.091 0-25.98.179-26.81 1.663M92.783 171.25c-3.692 9.488-7.002 18.037-7.355 19C84.823 191.9 87.266 192 128 192s43.177-.1 42.572-1.75c-.353-.963-3.663-9.512-7.355-19L156.504 154H99.496l-6.713 17.25" fill="#1976D2" fill-rule="evenodd"/><path fill-opacity=".085" d="m150.048 44.452-42.444 42.453 1.847 2.297c1.016 1.264-2.928-2.521-8.764-8.41-9.106-9.189-10.302-10.116-8.435-6.532 5.067 9.72 1.34 21.273-8.434 26.143-6.242 3.111-10.776 3.25-16.818.517l-4.5-2.035 3.918 4.022 3.918 4.022-10.918.323c-6.005.178.879.419 15.297.536 25.1.203 26.26.297 27.288 2.217.8 1.496.682 3.156-.465 6.535-2.324 6.844-1.968 14.995.926 21.21l2.444 5.25H70.516c-33.364 0-34.387.058-34.246 1.931.08 1.062.424 1.758.764 1.548.341-.211 3.51 2.629 7.043 6.311 3.532 3.681 4.612 5.017 2.398 2.968l-4.026-3.725-20.368 20.386-20.368 20.386.677 4.233c1.088 6.806 5.945 18.192 11.006 25.806 11.626 17.487 30.96 29.268 52.801 32.171 5.546.738 28.064.984 67.803.743 58.421-.354 59.636-.401 66.973-2.624 13.388-4.057 22.53-9.557 32.567-19.594 10.037-10.037 15.537-19.179 19.594-32.567 2.223-7.337 2.27-8.552 2.624-66.973.241-39.739-.005-62.257-.743-67.803-1.31-9.855-5.353-21.803-10.092-29.82-4.8-8.122-17.082-20.278-25.423-25.162C212.282 6.988 198.923 2 194.819 2c-1.734 0-13.152 10.826-44.771 42.452m-3.194-1.702C120.061 69.62 107.397 82.986 107.771 84c.493 1.333.342 1.333-1.358 0-1.784-1.399-1.817-1.377-.485.317 1.321 1.68 4.512-1.265 42.25-38.995C170.63 22.875 189 4.284 189 4.009c0-.275-17.89 17.386-39.755 39.246C127.38 65.115 109.045 83 108.5 83c-.545 0 17.005-18 39-40s39.766-40 39.491-40c-.275 0-18.337 17.887-40.137 39.75m46.704-38.843c-.309.498.34.671 1.441.383 2.335-.611 2.63-1.29.56-1.29-.793 0-1.693.408-2.001.907M172.5 65.569c-17.862 9.271-13.536 34.47 6.376 37.141 7.489 1.005 16.84-4.393 19.773-11.412 2.808-6.72 1.267-16.202-3.52-21.654-4.626-5.271-16.281-7.369-22.629-4.075m-50.278 39.878C112.506 108.532 107 116.095 107 126.356c0 12.222 8.759 20.967 21 20.967 8.503 0 15.32-4.167 19.201-11.736 3.074-5.996 2.254-16.054-1.776-21.794-5.309-7.562-14.857-10.996-23.203-8.346m31.421 4.841c-.316 1.259.085 4.48.891 7.159 2.203 7.319 1.852 14.182-1.044 20.402-1.369 2.942-2.49 5.417-2.49 5.5 0 .083 15.525.151 34.5.151 24.878 0 34.5-.314 34.5-1.124 0-.619-2.963-8.606-6.584-17.75L206.832 108H154.217l-.574 2.288M21.009 168.5l-18.49 19 18.24-17.99C30.792 159.616 39 151.983 39 152.547c0 .564-8.016 8.997-17.813 18.739C11.39 181.029 3.632 189 3.947 189c.315 0 9.035-8.471 19.377-18.824 13.998-14.012 18.469-19.061 17.49-19.75-.964-.679-6.243 4.139-19.805 18.074m78.308-14.25c-.44.688-3.975 9.35-7.856 19.25l-7.055 18 21.797.269c11.988.148 31.606.148 43.594 0l21.797-.269-7.055-18c-3.881-9.9-7.416-18.562-7.856-19.25-.609-.951-7.471-1.25-28.683-1.25s-28.074.299-28.683 1.25M3.345 194.543c-.326.849-.369 1.767-.096 2.04.274.273.737-.422 1.03-1.543.624-2.383-.069-2.751-.934-.497" fill="#1976D2" fill-rule="evenodd"/><path fill-opacity=".265" d="M93.702 77.339c5.021 15.249-10.457 30.245-25.387 24.596L65.5 100.87l3.446 3.565L72.392 108h14.696c14.478 0 14.704.034 15.269 2.288.316 1.259-.085 4.48-.891 7.159-2.105 6.995-1.781 13.174 1.053 20.053 1.36 3.3 2.474 6.113 2.476 6.25.003.137-15.397.25-34.222.25H36.547l23.476 23.75c12.913 13.063 23.746 23.525 24.076 23.25.482-.403 4.77-11.172 14.633-36.75.37-.96 7.159-1.25 29.247-1.25h28.766l5.771 14.75c3.175 8.113 6.601 16.887 7.614 19.5l1.841 4.75h-87.44l11.486 11.75c21.18 21.667 33.495 34.632 31.983 33.669-1.165-.742-3.607 1.224-10.944 8.813L107.611 256l37.445-.031c40.528-.033 47.314-.534 59.464-4.387 11.305-3.585 19.756-8.858 28.98-18.082s14.497-17.675 18.082-28.98c3.853-12.151 4.354-18.935 4.387-59.489l.031-37.468-5.75 5.646-5.75 5.647-23.357-22.929c-12.847-12.611-23.038-22.141-22.646-21.178 2.939 7.234 2.731 12.072-.796 18.487-4.423 8.045-15.529 11.952-23.96 8.429l-3.7-1.546 4.115 3.915 4.115 3.914 14.49.276 14.489.276 6.875 17.381c3.781 9.559 6.875 17.547 6.875 17.75 0 .203-15.75.369-35 .369s-35-.308-35-.684c0-.377.972-2.693 2.161-5.149 1.189-2.455 2.367-6.603 2.618-9.218.444-4.619.308-4.904-4.795-10.061-4.166-4.21-4.939-4.696-3.739-2.348 4.382 8.568 2.877 17.443-4.141 24.432-9.322 9.281-20.886 9.281-30.208 0-11.362-11.313-7.462-28.785 7.864-35.229l3.172-1.334-15.878-15.856C92.353 72.876 92.192 72.75 93.702 77.339m155.009 31.449c-4.632 4.667-6.413 7.11-5.703 7.82 1.404 1.404 12.907-10.089 12.71-12.699-.079-1.05-.172-1.909-.208-1.909-.035 0-3.095 3.054-6.799 6.788m.505.493c-5.836 5.91-7.23 9.047-1.629 3.665 3.383-3.25 7.965-8.946 7.197-8.946-.194 0-2.699 2.377-5.568 5.281m-136.453 135.24c-8.778 9.03-10.329 11.056-8.5 11.104 3.101.081 22.412-19.889 20.529-21.23-.932-.664-4.281 2.155-12.029 10.126m.718.628c-5.489 5.581-8.631 9.226-6.981 8.098 4.872-3.328 18.96-18.247 17.231-18.247-.148 0-4.76 4.567-10.25 10.149" fill="#1976D2" fill-rule="evenodd"/></svg>